<?xml version="1.0" ?><svg id="Layer_1" style="enable-background:new 0 0 512 512;" version="1.1" viewBox="0 0 512 512" xml:space="preserve" xmlns="http://www.w3.org/2000/svg" xmlns:xlink="http://www.w3.org/1999/xlink"><style type="text/css">
	.st0{fill:#F9AC82;}
	.st1{fill:#F8BC95;}
	.st2{fill:#703E28;}
	.st3{fill:#1A3F6F;}
	.st4{fill:#804830;}
	.st5{fill:#633621;}
</style><g><path class="st0" d="M256,463.7L256,463.7c-9,0-16.2-7.3-16.2-16.2V321.8h32.4v125.7C272.2,456.5,265,463.7,256,463.7z"/><path class="st1" d="M252.6,421.7c-3.3,0-6-2.7-6-6v-79.8c0-3.3,2.7-6,6-6s6,2.7,6,6v79.8C258.6,419.1,256,421.7,252.6,421.7z"/><path class="st1" d="M252.6,451.6c-3.3,0-6-2.7-6-6v-11c0-3.3,2.7-6,6-6s6,2.7,6,6v11C258.6,448.9,256,451.6,252.6,451.6z"/><path class="st2" d="M279.8,355.3h-47.5c-30.3,0-54.9-24.6-54.9-54.9V103.2c0-30.3,24.6-54.9,54.9-54.9h47.5   c30.3,0,54.9,24.6,54.9,54.9v197.3C334.7,330.7,310.1,355.3,279.8,355.3z"/><path class="st3" d="M279.8,42.3h-47.5c-33.6,0-60.9,27.3-60.9,60.9v197.3c0,33.6,27.3,60.9,60.9,60.9h1.6v86.2   c0,12.2,10,22.2,22.2,22.2s22.2-10,22.2-22.2v-86.2h1.6c33.6,0,60.9-27.3,60.9-60.9V103.2C340.7,69.6,313.3,42.3,279.8,42.3z    M266.2,447.5c0,5.6-4.6,10.2-10.2,10.2c-5.6,0-10.2-4.6-10.2-10.2v-86.2h20.4V447.5z M328.7,300.4c0,27-21.9,48.9-48.9,48.9h-47.5   c-27,0-48.9-21.9-48.9-48.9V103.2c0-27,21.9-48.9,48.9-48.9h47.5c27,0,48.9,21.9,48.9,48.9V300.4z"/><path class="st4" d="M196.1,310.8c-3.3,0-6-2.7-6-6V109c0-25.2,20.5-45.7,45.7-45.7c3.3,0,6,2.7,6,6s-2.7,6-6,6   c-18.6,0-33.7,15.1-33.7,33.7v195.8C202.1,308.1,199.4,310.8,196.1,310.8z"/><g><path class="st5" d="M282.1,309.8L282.1,309.8c-8.7,0-15.7-7-15.7-15.7V109.5c0-8.7,7-15.7,15.7-15.7h0c8.7,0,15.7,7,15.7,15.7    v184.7C297.7,302.8,290.7,309.8,282.1,309.8z"/><path class="st5" d="M229.9,309.8L229.9,309.8c-8.7,0-15.7-7-15.7-15.7V109.5c0-8.7,7-15.7,15.7-15.7h0c8.7,0,15.7,7,15.7,15.7    v184.7C245.6,302.8,238.6,309.8,229.9,309.8z"/></g></g></svg>